<svg width="19" height="18" viewBox="0 0 19 18" fill="none" xmlns="http://www.w3.org/2000/svg">
<g clip-path="url(#clip0_725_55)">
<path d="M8.05301 9.14427H6.38948C6.37323 9.14427 6.36012 9.157 6.35914 9.17287C6.31738 9.92409 6.17582 10.7334 5.97089 11.3944C5.968 11.4034 5.96961 11.4135 5.97522 11.4212C5.98099 11.4288 5.99007 11.4335 5.99962 11.4335H6.56891C6.58198 11.4335 6.59373 11.425 6.59772 11.4124C6.75711 10.9028 6.8851 10.241 6.93386 9.67757H7.47973V11.4032C7.47973 11.4197 7.49335 11.4334 7.51007 11.4334H8.05292C8.06969 11.4334 8.08318 11.4197 8.08318 11.4032V9.17461C8.08322 9.15789 8.0699 9.14427 8.05301 9.14427Z" fill="white"/>
<path d="M15.0886 9.14429H14.5457C14.5291 9.14429 14.5153 9.15787 14.5153 9.17467V10.8989C14.3962 10.9324 14.2773 10.9484 14.1431 10.9484C13.7832 10.9484 13.7004 10.8385 13.7004 10.3611V9.17467C13.7004 9.15795 13.6868 9.14429 13.6701 9.14429H13.1273C13.1105 9.14429 13.097 9.15787 13.097 9.17467V10.4182C13.097 11.196 13.3596 11.4992 14.0335 11.4992C14.4172 11.4992 14.8452 11.4014 15.0994 11.3047C15.1112 11.2999 15.1191 11.2889 15.1191 11.2764V9.1748C15.119 9.15808 15.1052 9.14441 15.0886 9.14441" fill="white"/>
<path d="M3.57801 9.14682H3.02629C3.0125 9.14682 3.00032 9.15607 2.9971 9.16965C2.90963 9.51326 2.73458 10.0859 2.49914 10.6862L1.94505 9.16439C1.94067 9.15255 1.92943 9.14444 1.91678 9.14444H1.35823C1.34843 9.14444 1.33922 9.14932 1.33357 9.15743C1.32789 9.16549 1.32644 9.17597 1.32975 9.18522L2.15948 11.4631C2.07274 11.6375 1.99491 11.7822 1.91963 11.9223C1.86433 12.0254 1.81031 12.1255 1.75599 12.2322C1.75102 12.2414 1.75149 12.2528 1.75692 12.2618C1.76252 12.2707 1.77233 12.2761 1.78289 12.2761H2.38707C2.3984 12.2761 2.40863 12.2698 2.41397 12.2597C2.51641 12.0626 2.643 11.7889 2.76081 11.5091C3.11337 10.6798 3.39817 9.89786 3.60683 9.18543C3.60963 9.17614 3.6078 9.16629 3.60208 9.15857C3.59647 9.15115 3.58748 9.14682 3.57801 9.14682Z" fill="white"/>
<path d="M5.55624 10.9003C5.55352 10.8928 5.54775 10.8865 5.54049 10.8833C5.53311 10.8797 5.52488 10.8795 5.51711 10.8824C5.38467 10.9312 5.13645 10.9712 4.96382 10.9712C4.5852 10.9712 4.40505 10.8691 4.40505 10.2885C4.40505 9.8243 4.46031 9.60587 4.96382 9.60587C5.10658 9.60587 5.23923 9.62671 5.40724 9.67522C5.42103 9.67899 5.43567 9.67292 5.44246 9.66045C5.5054 9.54222 5.58149 9.39785 5.66712 9.22076C5.6709 9.21304 5.67103 9.20362 5.66751 9.19559C5.66415 9.18791 5.65719 9.18146 5.64896 9.17879C5.42621 9.10801 5.16174 9.06714 4.92384 9.06714C4.13125 9.06714 3.77771 9.44109 3.77771 10.2796C3.77771 11.1306 4.13129 11.5098 4.92384 11.5098C5.12245 11.5098 5.51405 11.4681 5.70277 11.3926C5.71796 11.3866 5.72564 11.3698 5.72004 11.3541L5.55624 10.9003Z" fill="white"/>
<path d="M10.7234 9.14682H10.1718C10.1578 9.14682 10.1458 9.15607 10.1423 9.16965C10.055 9.51356 9.87991 10.0863 9.6446 10.6862L9.09038 9.16439C9.08605 9.15255 9.07489 9.14444 9.06203 9.14444H8.50364C8.49388 9.14444 8.48451 9.14932 8.4789 9.15743C8.47313 9.16549 8.47195 9.17597 8.47509 9.18522L9.30468 11.4631C9.21824 11.6372 9.14075 11.7814 9.06542 11.9215C9.00979 12.0247 8.95602 12.1249 8.90149 12.2321C8.89648 12.2414 8.89695 12.2526 8.90247 12.2616C8.90803 12.2705 8.91779 12.2761 8.92835 12.2761H9.53248C9.5436 12.2761 9.55417 12.2697 9.55939 12.2595C9.66179 12.0628 9.78821 11.7892 9.90618 11.5089C10.2582 10.6811 10.543 9.89922 10.7522 9.18535C10.755 9.17614 10.7533 9.16625 10.7477 9.15849C10.7419 9.15119 10.7327 9.14682 10.7234 9.14682Z" fill="white"/>
<path d="M12.7613 9.14427H11.1542C11.1375 9.14427 11.1239 9.15785 11.1239 9.17465V11.4033C11.1239 11.4198 11.1375 11.4334 11.1542 11.4334H11.6969C11.7136 11.4334 11.7272 11.4198 11.7272 11.4033V9.67761H12.5663C12.5786 9.67761 12.5896 9.67044 12.5942 9.65937C12.658 9.50872 12.7236 9.34932 12.7893 9.1859C12.7929 9.17665 12.7918 9.16595 12.7864 9.15789C12.7808 9.14945 12.7712 9.14427 12.7613 9.14427Z" fill="white"/>
<path d="M4.22128 7.62852C3.86388 7.62852 3.75248 7.53125 3.75248 6.9233C3.75248 6.27559 3.8739 6.21775 4.22128 6.21775C4.57508 6.21775 4.69883 6.27559 4.69883 6.9233C4.69883 7.53125 4.58535 7.62852 4.22128 7.62852ZM4.22128 5.71521C3.43718 5.71521 3.13159 6.05139 3.13159 6.91431C3.13159 7.78986 3.43718 8.13071 4.22128 8.13071C5.01192 8.13071 5.3198 7.78973 5.3198 6.91431C5.3198 6.05156 5.01192 5.71521 4.22128 5.71521Z" fill="white"/>
<path d="M7.48592 7.53678C7.48316 7.52923 7.4776 7.52295 7.47018 7.51976C7.46275 7.5162 7.45447 7.51599 7.44692 7.51887C7.31443 7.56767 7.06601 7.60765 6.89346 7.60765C6.51484 7.60765 6.33461 7.50559 6.33461 6.92497C6.33461 6.46075 6.38982 6.24237 6.89346 6.24237C7.03605 6.24237 7.16883 6.26317 7.33701 6.31171C7.35063 6.31549 7.36531 6.30942 7.37215 6.2969C7.43516 6.17867 7.511 6.0343 7.59664 5.85722C7.60058 5.84949 7.60075 5.84011 7.59715 5.83214C7.59371 5.82433 7.58692 5.81796 7.57873 5.81525C7.35577 5.7445 7.0916 5.70355 6.85348 5.70355C6.06085 5.70355 5.70752 6.07759 5.70752 6.91614C5.70752 7.76709 6.06085 8.1463 6.85348 8.1463C7.05217 8.1463 7.44365 8.10463 7.63254 8.02909C7.64773 8.02311 7.65533 8.0063 7.64973 7.9906L7.48592 7.53678Z" fill="white"/>
<path d="M2.96534 5.78056H1.35826C1.34154 5.78056 1.328 5.79418 1.328 5.81103V8.03964C1.328 8.05623 1.34154 8.06981 1.35826 8.06981H1.90094C1.91779 8.06981 1.93137 8.05623 1.93137 8.03964V6.31399H2.7706C2.78278 6.31399 2.79352 6.30678 2.79835 6.29574C2.86214 6.14505 2.92787 5.98566 2.99339 5.82228C2.99721 5.81298 2.99602 5.80229 2.99038 5.79427C2.98478 5.78582 2.97553 5.78056 2.96534 5.78056Z" fill="white"/>
<path d="M17.6253 11.2008C17.6261 11.1896 17.627 11.1784 17.6278 11.1671C17.6292 11.1472 17.6306 11.127 17.632 11.1063C17.6536 10.7951 17.6758 10.4072 17.6905 9.97277C17.6909 9.96105 17.6914 9.9493 17.6917 9.93754C17.7015 9.63943 17.7076 9.32017 17.7076 8.98934C17.7076 8.6585 17.7015 8.33929 17.6917 8.04113C17.6913 8.02937 17.6909 8.01762 17.6905 8.00595C17.6758 7.57152 17.6536 7.18352 17.632 6.87238C17.6306 6.85175 17.6292 6.83151 17.6278 6.81161C17.627 6.80028 17.6261 6.78903 17.6253 6.778C17.623 6.74621 17.6208 6.7154 17.6185 6.68553C17.6175 6.67271 17.6166 6.66011 17.6156 6.64767C17.5904 6.31875 17.5693 6.11598 17.5671 6.09519C17.5637 6.06336 17.5598 6.03124 17.5553 5.99894C17.5541 5.99105 17.5527 5.98307 17.5515 5.97513C17.5431 5.91827 17.5331 5.86081 17.5212 5.80276C17.5195 5.79457 17.5175 5.78621 17.5157 5.77802C17.3688 5.0902 16.9866 4.33516 16.5106 3.76388C16.3271 3.54355 16.1297 3.3505 15.9265 3.19917C15.9064 3.18415 15.6719 3.00995 15.2946 2.75006C14.8613 2.45139 14.2396 2.03967 13.5378 1.62608C12.2878 0.890185 11.1695 0.375469 11.0225 0.308503L11.0222 0.308334C11.0216 0.308121 11.0212 0.307909 11.0206 0.307655C11.0145 0.304854 11.0102 0.302902 11.0081 0.301968C11.008 0.301926 11.0078 0.301841 11.0077 0.301841C10.6791 0.153694 10.2758 0.0546887 9.84107 0.0124641C9.75806 0.00435864 9.67408 -0.0017947 9.58904 -0.00565645C9.51329 -0.00909383 9.43682 -0.0108337 9.35992 -0.0108337C9.32147 -0.0108337 9.28311 -0.0103669 9.24492 -0.0095182C8.67198 0.00342503 8.13137 0.112827 7.7121 0.301841C7.71163 0.302053 7.71087 0.302392 7.71019 0.302689C7.64356 0.33282 6.51126 0.847409 5.22806 1.59922H5.22904C5.21338 1.60839 5.19776 1.61755 5.1821 1.6268C3.86945 2.3997 2.8367 3.16675 2.79342 3.19909C2.47069 3.43949 2.18377 3.74287 1.9227 4.13626C1.86498 4.22317 1.85951 4.44588 2.11757 4.44588H2.7674C3.04774 4.44588 3.1139 4.27537 3.42725 4.04978C3.77761 3.79762 4.45949 3.28341 5.72045 2.54089C6.62877 2.00598 7.47921 1.58572 7.89033 1.38958C7.89144 1.38903 7.8925 1.38852 7.8936 1.38801C7.90103 1.38449 7.90833 1.38101 7.91546 1.37761C7.91864 1.37609 7.92182 1.37456 7.92496 1.37312C7.92912 1.37112 7.93328 1.36913 7.93731 1.36722C7.94419 1.36395 7.95093 1.36077 7.95751 1.35767L7.95827 1.35729C7.96562 1.35381 7.97275 1.35045 7.97971 1.34719C7.97979 1.34714 7.97983 1.3471 7.97992 1.34706C8.08563 1.29724 8.14559 1.27004 8.14814 1.26889C8.43747 1.13848 8.84376 1.06019 9.27365 1.05089C9.30229 1.0503 9.33106 1.04996 9.35992 1.04996C9.38878 1.04996 9.41751 1.0503 9.4462 1.05089C9.57321 1.05365 9.69802 1.06265 9.81849 1.07699C10.0786 1.10797 10.3181 1.16475 10.5123 1.24347C10.5325 1.25166 10.5523 1.26011 10.5716 1.26881C10.5726 1.26927 10.5834 1.27415 10.6028 1.28306C10.795 1.3715 11.8535 1.86581 12.9994 2.54089C13.6748 2.93848 14.2814 3.34074 14.701 3.62982C15.065 3.88079 15.2882 4.04659 15.2929 4.05012C15.4542 4.17021 15.6151 4.33622 15.7649 4.52889C16.1477 5.02137 16.4573 5.68775 16.512 6.20633C16.5125 6.21146 16.5343 6.42161 16.5603 6.76739C16.562 6.79018 16.5637 6.81352 16.5654 6.83745C16.5666 6.85366 16.5678 6.87008 16.569 6.8868C16.5711 6.91668 16.5732 6.9474 16.5754 6.97889C16.5762 6.99107 16.5771 7.00329 16.5779 7.01564C16.5792 7.03635 16.5807 7.05736 16.582 7.07866C16.5847 7.12004 16.5874 7.16247 16.59 7.20606C16.5916 7.23249 16.5933 7.25931 16.5948 7.28656C16.5952 7.29314 16.5955 7.29976 16.596 7.30638C16.5977 7.33723 16.5995 7.3685 16.6013 7.40033C16.6024 7.4224 16.6037 7.44472 16.6049 7.46726C16.6282 7.90957 16.6467 8.43532 16.6467 8.98929C16.6467 9.54326 16.6282 10.0691 16.6049 10.5113C16.6037 10.5338 16.6024 10.5562 16.6013 10.5783C16.5995 10.61 16.5977 10.6414 16.596 10.6722C16.5956 10.6788 16.5951 10.6855 16.5948 10.692C16.5933 10.7192 16.5916 10.7461 16.59 10.7725C16.5874 10.8161 16.5847 10.8586 16.582 10.8999C16.5807 10.9212 16.5792 10.9422 16.5779 10.9629C16.577 10.9753 16.5762 10.9875 16.5754 10.9997C16.5732 11.0312 16.5711 11.0619 16.569 11.0918C16.5678 11.1085 16.5666 11.1249 16.5654 11.1411C16.5637 11.165 16.562 11.1884 16.5603 11.2112C16.5343 11.557 16.5125 11.7671 16.512 11.7723C16.4573 12.2908 16.1477 12.9572 15.7649 13.4497C15.6151 13.6423 15.4542 13.8084 15.2929 13.9285C15.2882 13.932 15.065 14.0978 14.701 14.3487C14.2814 14.6378 13.6748 15.0401 12.9994 15.4377C11.8535 16.1127 10.7949 16.607 10.6028 16.6954C10.5834 16.7043 10.5726 16.7092 10.5716 16.7097C10.5523 16.7184 10.5325 16.7268 10.5123 16.735C10.3181 16.8137 10.0786 16.8705 9.81849 16.9015C9.69802 16.9159 9.57321 16.9249 9.4462 16.9276C9.41751 16.9282 9.38878 16.9285 9.35992 16.9285C9.33106 16.9285 9.30229 16.9282 9.27365 16.9276C8.84376 16.9183 8.43747 16.84 8.14814 16.7096C8.14559 16.7085 8.08559 16.6813 7.97992 16.6314C7.97877 16.6308 7.97763 16.6303 7.97648 16.6298C7.96536 16.6245 7.95382 16.6191 7.94168 16.6133C7.94045 16.6127 7.93914 16.6121 7.93791 16.6115C7.9287 16.6072 7.91906 16.6026 7.9093 16.598C7.90425 16.5955 7.89916 16.5931 7.89394 16.5906C7.88622 16.5869 7.87815 16.5831 7.87005 16.5792C7.85982 16.5743 7.84934 16.5693 7.83856 16.5641L7.83169 16.5608C7.40184 16.3544 6.58752 15.9483 5.72037 15.4376C4.4594 14.6951 3.77753 14.181 3.42717 13.9287C3.11382 13.7032 3.04766 13.5327 2.76732 13.5327H2.11748C1.85943 13.5327 1.8649 13.7553 1.92261 13.8423C2.18369 14.2357 2.4706 14.5391 2.79333 14.7795C2.83666 14.8118 3.86936 15.5788 5.18202 16.3517C5.25208 16.393 5.32163 16.4335 5.39068 16.4733H5.38974C6.60429 17.1734 7.64518 17.6465 7.71002 17.6758C7.71074 17.6761 7.71155 17.6764 7.71201 17.6767C8.13133 17.8657 8.67194 17.9751 9.24483 17.9881C9.28303 17.9889 9.32139 17.9893 9.35984 17.9893C9.43673 17.9893 9.5132 17.9876 9.58895 17.9842C9.674 17.9803 9.75798 17.9741 9.84098 17.9661C10.2758 17.9239 10.679 17.8249 11.0077 17.6767C11.0077 17.6767 11.0078 17.6766 11.0079 17.6765C11.01 17.6756 11.0144 17.6736 11.0205 17.6708C11.0211 17.6706 11.0215 17.6703 11.022 17.6702C11.0221 17.6701 11.0223 17.67 11.0224 17.67C11.1693 17.6031 12.2877 17.0884 13.5377 16.3525C14.2395 15.9389 14.8612 15.5272 15.2945 15.2285C15.6718 14.9686 15.9063 14.7944 15.9264 14.7794C16.1296 14.628 16.327 14.435 16.5105 14.2147C16.9864 13.6434 17.3686 12.8884 17.5156 12.2006C17.5173 12.1923 17.5193 12.184 17.521 12.1758C17.533 12.1178 17.5429 12.0603 17.5514 12.0034C17.5526 11.9955 17.554 11.9875 17.5551 11.9796C17.5596 11.9474 17.5636 11.9152 17.567 11.8834C17.5692 11.8626 17.5903 11.6598 17.6155 11.3309C17.6165 11.3185 17.6174 11.3058 17.6184 11.2931C17.6206 11.2632 17.6229 11.2324 17.6252 11.2006" fill="white"/>
</g>
<defs>
<clipPath id="clip0_725_55">
<rect width="18" height="18" fill="white" transform="translate(0.5)"/>
</clipPath>
</defs>
</svg>
